<?xml version="1.0" encoding="utf-8"?>
<!-- Generator: Adobe Illustrator 22.1.0, SVG Export Plug-In . SVG Version: 6.00 Build 0)  -->
<svg version="1.1" id="Capa_1" xmlns="http://www.w3.org/2000/svg" xmlns:xlink="http://www.w3.org/1999/xlink" x="0px" y="0px"
	 viewBox="0 0 52 52" style="enable-background:new 0 0 52 52;" xml:space="preserve">
<style type="text/css">
	.st0{fill:#BCB4AC;}
</style>
<g>
	<path class="st0" d="M50.2,48.5h-3.7v-20H49c1,0,1.9-0.6,2.3-1.5c0.4-0.9,0.2-2-0.5-2.7L28.3,1.7C27.8,1.2,27.1,1,26.5,1
		c-0.6,0-1.3,0.2-1.8,0.7l-7,7V6c0-1.4-1.1-2.5-2.5-2.5h-2.5c-1.4,0-2.5,1.1-2.5,2.5v10.2l-8,8C1.5,24.9,1.3,26,1.7,27
		C2.1,27.9,3,28.5,4,28.5h2.5v20H2.8c-0.7,0-1.2,0.6-1.2,1.3c0,0.7,0.6,1.2,1.2,1.2h47.5c0.7,0,1.3-0.6,1.3-1.2
		C51.5,49.1,50.9,48.5,50.2,48.5z M12.8,6h2.5v5.2l-2.5,2.5V6z M30.2,48.5h-7.5V31h7.5V48.5z M44,48.5H32.7V31
		c0-1.4-1.1-2.5-2.5-2.5h-7.5c-1.4,0-2.5,1.1-2.5,2.5v17.5H9V26H4L26.5,3.5L49,26h-5V48.5L44,48.5z"/>
</g>
</svg>
