<?xml version="1.0" encoding="utf-8"?>
<!-- Generator: Adobe Illustrator 22.1.0, SVG Export Plug-In . SVG Version: 6.00 Build 0)  -->
<svg version="1.1" id="Capa_1" xmlns="http://www.w3.org/2000/svg" xmlns:xlink="http://www.w3.org/1999/xlink" x="0px" y="0px"
	 viewBox="0 0 86.3 73.4" style="enable-background:new 0 0 86.3 73.4;" xml:space="preserve">
<style type="text/css">
	.st0{fill:none;stroke:#B7AEA6;stroke-width:2.4589;stroke-linecap:round;stroke-linejoin:round;stroke-miterlimit:10;}
</style>
<g>
	<g>
		<path class="st0" d="M47.1,63.1c-2.5,4.8-9.4,0.6-9.4,0.6L14.4,45l-1.5,5.3L1.1,49.9l3.5-36.4l11.9,2.2l14.2-0.5"/>
		<path class="st0" d="M47.1,63.1c-2.5,4.8-9.4,0.6-9.4,0.6L14.4,45l-1.5,5.3L1.1,49.9l3.5-36.4l11.9,2.2l14.2-0.5"/>
		<path class="st0" d="M14.4,45c0,0,3.9-22.9,2-29.2"/>
		<path class="st0" d="M38.5,54.7l5.3,5c0,0,7.5,7.2,11.2,1.2c0,0,0.8-1.6,0.8-2.1"/>
		<path class="st0" d="M43.6,48.7l5.3,5c0,0,8.2,9.4,13.2,1.2l0.5-1.3"/>
		<path class="st0" d="M49.9,43.1c3.4,4.2,8.3,8.5,13.1,9.9c2.4,0.7,4.6-2.1,3.9-4.8c-0.7-3-3.1-5.2-5.1-6.9
			c-5.8-4.9-20-15.5-20-15.5l-4.8,1c-10.3,17.8-15.5-2.3-6.2-11.4c9.2-9.1,38.7,5,38.7,5"/>
		<path class="st0" d="M71.2,43.8c0,0-4,7.2-5.3,8.2"/>
		<path class="st0" d="M72.6,47.9c0,0-4.7-23.1-3-29.3l11.8-1.8l4.7,36.5l-11.8,0L72.6,47.9z"/>
	</g>
</g>
</svg>
