<?xml version="1.0" encoding="utf-8"?>
<!-- Generator: Adobe Illustrator 22.1.0, SVG Export Plug-In . SVG Version: 6.00 Build 0)  -->
<svg version="1.1" id="Capa_1" xmlns="http://www.w3.org/2000/svg" xmlns:xlink="http://www.w3.org/1999/xlink" x="0px" y="0px"
	 viewBox="0 0 52 52" style="enable-background:new 0 0 52 52;" xml:space="preserve">
<style type="text/css">
	.st0{fill:#FFFFFF;}
</style>
<g>
	<path class="st0" d="M41.6,30.8H26.3c-1.4,0-2.5,1.1-2.5,2.6v2.6c0,1.4,1.1,2.5,2.5,2.5h15.3c1.4,0,2.5-1.1,2.5-2.5v-2.6
		C44.2,32,43.1,30.8,41.6,30.8z M41.6,35.9H26.3v-2.6h15.3V35.9z"/>
	<path class="st0" d="M41.6,20.6H26.3c-1.4,0-2.5,1.1-2.5,2.6v2.5c0,1.4,1.1,2.6,2.5,2.6h15.3c1.4,0,2.5-1.1,2.5-2.6v-2.5
		C44.2,21.8,43.1,20.6,41.6,20.6z M41.6,25.7H26.3v-2.5h15.3V25.7z"/>
	<path class="st0" d="M14.9,5.3H9.8c-0.7,0-1.3,0.6-1.3,1.3v5.1c0,0.7,0.6,1.3,1.3,1.3h5.1c0.7,0,1.3-0.6,1.3-1.3V6.6
		C16.1,5.9,15.6,5.3,14.9,5.3z M13.6,10.4H11V7.9h2.6V10.4z"/>
	<path class="st0" d="M25.1,5.3H20c-0.7,0-1.3,0.6-1.3,1.3v5.1c0,0.7,0.6,1.3,1.3,1.3h5.1c0.7,0,1.3-0.6,1.3-1.3V6.6
		C26.3,5.9,25.8,5.3,25.1,5.3z M23.8,10.4h-2.5V7.9h2.5V10.4z"/>
	<path class="st0" d="M14.9,15.5H9.8c-0.7,0-1.3,0.6-1.3,1.3v5.1c0,0.7,0.6,1.3,1.3,1.3h5.1c0.7,0,1.3-0.6,1.3-1.3v-5.1
		C16.1,16.1,15.6,15.5,14.9,15.5z M13.6,20.6H11v-2.5h2.6V20.6z"/>
	<path class="st0" d="M14.9,25.7H9.8c-0.7,0-1.3,0.6-1.3,1.3v5.1c0,0.7,0.6,1.3,1.3,1.3h5.1c0.7,0,1.3-0.6,1.3-1.3V27
		C16.1,26.3,15.6,25.7,14.9,25.7z M13.6,30.8H11v-2.5h2.6V30.8z"/>
	<path class="st0" d="M14.9,35.9H9.8c-0.7,0-1.3,0.6-1.3,1.3v5.1c0,0.7,0.6,1.3,1.3,1.3h5.1c0.7,0,1.3-0.6,1.3-1.3v-5.1
		C16.1,36.5,15.6,35.9,14.9,35.9z M13.6,41H11v-2.5h2.6V41z"/>
	<path class="st0" d="M50.6,48.7h-1.3V18.1c0-1.4-1.1-2.6-2.6-2.6H21.2c-1.4,0-2.6,1.1-2.6,2.6v30.6H5.9V2.8h22.9V13h2.5V2.8
		c0-1.4-1.1-2.5-2.5-2.5H5.9c-1.4,0-2.6,1.1-2.6,2.5v45.9H2.1c-0.7,0-1.3,0.6-1.3,1.3c0,0.7,0.6,1.3,1.3,1.3h48.4
		c0.7,0,1.3-0.6,1.3-1.3C51.8,49.3,51.3,48.7,50.6,48.7z M31.4,48.7h-5.1v-5.1h5.1V48.7z M41.6,48.7h-2.5v-5.1h2.5V48.7z M46.7,48.7
		h-2.5v-5.1c0-1.4-1.1-2.5-2.5-2.5h-2.5c-1.4,0-2.6,1.1-2.6,2.5v5.1H34v-5.1c0-1.4-1.1-2.5-2.6-2.5h-5.1c-1.4,0-2.5,1.1-2.5,2.5v5.1
		h-2.5V18.1h25.5V48.7z"/>
</g>
</svg>
