<?xml version="1.0" encoding="utf-8"?>
<!-- Generator: Adobe Illustrator 22.1.0, SVG Export Plug-In . SVG Version: 6.00 Build 0)  -->
<svg version="1.1" id="Capa_1" xmlns="http://www.w3.org/2000/svg" xmlns:xlink="http://www.w3.org/1999/xlink" x="0px" y="0px"
	 viewBox="0 0 52 52" style="enable-background:new 0 0 52 52;" xml:space="preserve">
<style type="text/css">
	.st0{fill:#BCB4AC;}
</style>
<g>
	<path class="st0" d="M31.2,6.8c-3.5,0-6.4,2.9-6.4,6.4c0,3.5,2.9,6.4,6.4,6.4c3.5,0,6.4-2.9,6.4-6.4C37.6,9.6,34.7,6.8,31.2,6.8z
		 M31.2,17.1c-2.1,0-3.9-1.7-3.9-3.9c0-2.1,1.7-3.9,3.9-3.9c2.1,0,3.9,1.7,3.9,3.9C35.1,15.3,33.4,17.1,31.2,17.1z"/>
	<path class="st0" d="M40.2,4.2c-2.4-2.4-5.6-3.7-8.9-3.7c-3.4,0-6.6,1.3-8.9,3.7c-4.9,4.9-4.9,13,0,17.9c0.1,0.1,8.6,8.6,8.6,8.6
		l0.4,0.4l0.4-0.4c0,0,8.5-8.5,8.6-8.6C45.1,17.2,45.1,9.1,40.2,4.2z M38.4,20.4c0,0-1.4,1.4-3,3l-4.2,4.2l-4.9-4.9
		c-1.3-1.3-2.3-2.3-2.3-2.3c-4-4-4-10.4,0-14.4c1.9-1.9,4.5-3,7.2-3c2.7,0,5.3,1.1,7.2,3C42.4,9.9,42.4,16.4,38.4,20.4z"/>
	<path class="st0" d="M46.4,10.7v2.6h2.6v16.4l-6.4-4.5l-8.9,12.5l15.3,10.9V49h-3.4L3,18.7v-5.4h12.8v-2.6H0.5v40.8h51V10.7H46.4z
		 M3,37.5L6.6,40L3,44.9V37.5z M12.7,49l2.2-3.1l4.3,3.1H12.7z M23.5,49l-9.3-6.6L9.6,49H3.3l6.8-9.6l-7.1-5v-3.1L27.9,49H23.5z
		 M32.3,49L3,28.1v-6.3L41.1,49H32.3z M48.9,45.3l-11.7-8.3l5.9-8.3l5.8,4.1V45.3z"/>
</g>
</svg>
