<?xml version="1.0" encoding="utf-8"?>
<!-- Generator: Adobe Illustrator 15.1.0, SVG Export Plug-In . SVG Version: 6.00 Build 0)  -->
<!DOCTYPE svg PUBLIC "-//W3C//DTD SVG 1.1//EN" "http://www.w3.org/Graphics/SVG/1.1/DTD/svg11.dtd">
<svg version="1.1" id="Layer_1" xmlns="http://www.w3.org/2000/svg" xmlns:xlink="http://www.w3.org/1999/xlink" x="0px" y="0px"
	 width="115.439px" height="62.78px" viewBox="0 0 115.439 62.78" enable-background="new 0 0 115.439 62.78" xml:space="preserve">
<path fill="none" stroke="#B0B0B0" stroke-width="3" stroke-linecap="round" stroke-linejoin="round" stroke-miterlimit="10" d="
	M62.108,58.602c-3.42,5.435-12.512,0.919-12.512,0.919l-30.339-20.52l-2.088,6.04L1.5,44.808L6.929,3.82l15.648,2.257l18.838-0.88"
	/>
<path fill="none" stroke="#B0B0B0" stroke-width="3" stroke-linecap="round" stroke-linejoin="round" stroke-miterlimit="10" d="
	M62.108,58.602c-3.42,5.435-12.512,0.919-12.512,0.919l-30.339-20.52l-2.088,6.04L1.5,44.808L6.929,3.82l15.648,2.257l18.838-0.88"
	/>
<path fill="none" stroke="#B0B0B0" stroke-width="3" stroke-linecap="round" stroke-linejoin="round" stroke-miterlimit="10" d="
	M19.258,39.002c0,0,5.636-25.871,3.319-32.925"/>
<path fill="none" stroke="#B0B0B0" stroke-width="3" stroke-linecap="round" stroke-linejoin="round" stroke-miterlimit="10" d="
	M50.954,49.273l6.937,5.52c0,0,9.737,7.975,14.758,1.097c0,0,1.083-1.843,1.146-2.395"/>
<path fill="none" stroke="#B0B0B0" stroke-width="3" stroke-linecap="round" stroke-linejoin="round" stroke-miterlimit="10" d="
	M57.868,42.435l6.938,5.519c0,0,10.641,10.435,17.468,1.009l0.737-1.488"/>
<path fill="none" stroke="#B0B0B0" stroke-width="3" stroke-linecap="round" stroke-linejoin="round" stroke-miterlimit="10" d="
	M66.237,35.969c4.434,4.65,10.785,9.39,17.08,10.886c3.144,0.748,6.113-2.512,5.3-5.523c-0.898-3.314-4.003-5.831-6.642-7.696
	c-7.525-5.323-26.15-16.958-26.15-16.958l-6.42,1.235c-14.093,20.273-20.436-2.216-7.99-12.714
	C53.864-5.3,92.512,9.894,92.512,9.894"/>
<path fill="none" stroke="#B0B0B0" stroke-width="3" stroke-linecap="round" stroke-linejoin="round" stroke-miterlimit="10" d="
	M94.515,36.288c0,0-5.402,8.133-7.141,9.344"/>
<path fill="none" stroke="#B0B0B0" stroke-width="3" stroke-linecap="round" stroke-linejoin="round" stroke-miterlimit="10" d="
	M96.181,40.89c0,0-5.635-25.871-3.318-32.925l15.646-2.257l5.43,40.987L98.27,46.93L96.181,40.89z"/>
<rect y="0" fill="none" width="115.439" height="62.78"/>
</svg>
