<?xml version="1.0" encoding="utf-8"?>
<!-- Generator: Adobe Illustrator 22.1.0, SVG Export Plug-In . SVG Version: 6.00 Build 0)  -->
<svg version="1.1" id="_x2014_ÎÓÈ_x5F_1" xmlns="http://www.w3.org/2000/svg" xmlns:xlink="http://www.w3.org/1999/xlink"
	 x="0px" y="0px" viewBox="0 0 44 50" style="enable-background:new 0 0 44 50;" xml:space="preserve">
<style type="text/css">
	.st0{fill-rule:evenodd;clip-rule:evenodd;fill:#B7AEA6;}
</style>
<path class="st0" d="M41.3,27.5l-9.5,7.2l9.5,7.2V27.5L41.3,27.5z M41.2,44.8c0,0.1-0.1,0.2-0.2,0.2l0,0c-0.2,0.2-0.5,0.3-0.7,0.3
	H3.7c-0.3,0-0.6-0.1-0.7-0.3c-0.1-0.1-0.1-0.2-0.2-0.3l12.1-9.1l0,0l6.4-4.9c0.2-0.1,0.4-0.2,0.6-0.2c0.2,0,0.4,0.1,0.6,0.2l6.4,4.9
	l0,0L41.2,44.8L41.2,44.8z M2.7,41.8l9.5-7.2l-6.5-4.9c0,0-0.1-0.1-0.1-0.1l-2.9-2.2V41.8L2.7,41.8z M2.7,24.5l2.4,1.8v-7.9
	l-1.9,1.9c0,0-0.1,0.1-0.1,0.1c-0.1,0.1-0.2,0.2-0.3,0.4c-0.1,0.1-0.1,0.3-0.1,0.5V24.5L2.7,24.5z M5.1,15V8.1c0-1,0.4-2,1.1-2.7
	c0.7-0.7,1.6-1.1,2.7-1.1v0h18.7c0,0,0.1,0,0.1,0c0.4,0,0.7,0.2,0.9,0.4l9.9,9.9l0,0l0,0l0,0l3.9,3.9c0.4,0.3,0.7,0.7,1,1.2
	c0.2,0.5,0.4,1,0.4,1.5v23c0,0.9-0.4,1.7-0.9,2.4l-0.1,0.1c-0.6,0.6-1.5,1-2.5,1H3.7c-1,0-1.8-0.4-2.5-1c-0.6-0.6-1-1.5-1-2.5v-23
	c0-0.6,0.1-1.1,0.4-1.5c0.2-0.4,0.5-0.8,1-1.2L5.1,15L5.1,15z M38.9,18.4l0,7.9l2.4-1.8v-3.2c0-0.2,0-0.3-0.1-0.5
	c-0.1-0.1-0.2-0.3-0.3-0.4c-0.1,0-0.1-0.1-0.2-0.2L38.9,18.4L38.9,18.4z M14.1,26h10.3c0.7,0,1.2-0.5,1.2-1.2c0-0.7-0.5-1.2-1.2-1.2
	H14.1c-0.7,0-1.2,0.5-1.2,1.2C12.9,25.5,13.4,26,14.1,26L14.1,26z M14.1,21.5h15.8c0.7,0,1.2-0.5,1.2-1.2c0-0.7-0.5-1.2-1.2-1.2
	H14.1c-0.7,0-1.2,0.5-1.2,1.2C12.9,21,13.4,21.5,14.1,21.5L14.1,21.5z M7.5,28.1v-20c0-0.4,0.2-0.7,0.4-1c0.2-0.2,0.6-0.4,1-0.4v0
	l17.6,0v7.1c0,1,0.4,1.9,1,2.5h0c0.6,0.6,1.5,1,2.5,1h6.4l0,10.7l-6.7,5l-5.7-4.3c-0.6-0.5-1.4-0.7-2.1-0.7c-0.7,0-1.5,0.2-2.1,0.7
	l-5.7,4.3L7.5,28.1L7.5,28.1z M35.4,15l-6.5-6.5v5.4c0,0.3,0.1,0.6,0.3,0.8l0,0c0.2,0.2,0.5,0.3,0.8,0.3H35.4z"/>
</svg>
