<?xml version="1.0" encoding="utf-8"?>
<!-- Generator: Adobe Illustrator 22.1.0, SVG Export Plug-In . SVG Version: 6.00 Build 0)  -->
<svg version="1.1" id="Capa_1" xmlns="http://www.w3.org/2000/svg" xmlns:xlink="http://www.w3.org/1999/xlink" x="0px" y="0px"
	 viewBox="0 0 86.3 73.4" style="enable-background:new 0 0 86.3 73.4;" xml:space="preserve">
<style type="text/css">
	.st0{fill:none;stroke:#B7AEA5;stroke-width:2.8202;stroke-linecap:round;stroke-linejoin:round;stroke-miterlimit:10;}
	.st1{fill:none;stroke:#B7AEA5;stroke-width:2.8202;stroke-linecap:round;stroke-miterlimit:10;}
</style>
<g>
	<polyline class="st0" points="45.8,8.5 46.2,8.5 63.6,8.5 70.5,15.1 46.2,15.1 45.8,15.1 	"/>
	<line class="st0" x1="39.7" y1="15.1" x2="39.2" y2="15.1"/>
	<line class="st0" x1="39.7" y1="8.5" x2="39.2" y2="8.5"/>
	<path class="st1" d="M66.9,28.3c0,0-10.2,28.6-10.3,28.7c-0.2,0.6,4.8,2.5,5.1,2.6c6.6,2,16.5,1.9,22.1-2.6L73.6,27.9"/>
	<line class="st1" x1="59.1" y1="51.6" x2="81.4" y2="51.6"/>
	<path class="st1" d="M74.9,24.4c0,2.6-2.1,4.7-4.7,4.7c-2.6,0-4.7-2.1-4.7-4.7c0-2.6,2.1-4.7,4.7-4.7
		C72.8,19.8,74.9,21.9,74.9,24.4z"/>
	<line class="st0" x1="39.7" y1="61.3" x2="39.7" y2="15.1"/>
	<line class="st0" x1="45.8" y1="61.3" x2="45.8" y2="15.1"/>
	<polyline class="st0" points="39.7,8.5 39.7,3.2 45.8,3.2 45.8,8.5 	"/>
	<rect x="33.5" y="62.3" class="st0" width="18.8" height="8"/>
	<line class="st1" x1="70.3" y1="15.1" x2="70.3" y2="19.2"/>
	<polyline class="st0" points="39.7,8.5 39.2,8.5 22.7,8.5 15.8,15.1 39.2,15.1 39.7,15.1 	"/>
	<line class="st0" x1="46.2" y1="15.1" x2="45.8" y2="15.1"/>
	<line class="st0" x1="46.2" y1="8.5" x2="45.8" y2="8.5"/>
	<path class="st1" d="M19.4,28.3c0,0,10.2,28.6,10.3,28.7c0.2,0.6-4.8,2.5-5.1,2.6C18,61.5,8.1,61.5,2.4,57l10.3-29.1"/>
	<line class="st1" x1="27.2" y1="51.6" x2="5" y2="51.6"/>
	<path class="st1" d="M11.4,24.4c0,2.6,2.1,4.7,4.7,4.7c2.6,0,4.7-2.1,4.7-4.7c0-2.6-2.1-4.7-4.7-4.7C13.5,19.8,11.4,21.9,11.4,24.4
		z"/>
	<line class="st1" x1="16.1" y1="15.1" x2="16.1" y2="19.2"/>
</g>
</svg>
