<?xml version="1.0" encoding="utf-8"?>
<!-- Generator: Adobe Illustrator 15.1.0, SVG Export Plug-In . SVG Version: 6.00 Build 0)  -->
<!DOCTYPE svg PUBLIC "-//W3C//DTD SVG 1.1//EN" "http://www.w3.org/Graphics/SVG/1.1/DTD/svg11.dtd">
<svg version="1.1" id="Layer_1" xmlns="http://www.w3.org/2000/svg" xmlns:xlink="http://www.w3.org/1999/xlink" x="0px" y="0px"
	 width="178.741px" height="102.026px" viewBox="0 0 178.741 102.026" enable-background="new 0 0 178.741 102.026"
	 xml:space="preserve">
<g>
	<defs>
		<rect id="SVGID_1_" width="178.741" height="102.026"/>
	</defs>
	<clipPath id="SVGID_2_">
		<use xlink:href="#SVGID_1_"  overflow="visible"/>
	</clipPath>
	<path clip-path="url(#SVGID_2_)" fill="#ED8815" d="M48.875,55.865c1.702-0.505,3.476-0.686,5.239-0.805
		c1.537-0.086,3.056,0.21,4.588,0.261c1.862,0.245,3.706,0.634,5.527,1.097c0.22,0.093,0.572,0.107,0.61,0.402
		c0.08,0.303,0.064,0.621,0.068,0.934c-0.021,1.138,0.02,2.278-0.05,3.415c-2.517-0.901-5.046-1.897-7.738-2.108
		c-0.502-0.057-1.009-0.045-1.511-0.102c-1.261-0.134-2.526,0.056-3.769,0.267c-2.168,0.463-4.199,1.569-5.745,3.164
		c-1.642,1.616-2.827,3.683-3.383,5.92c-0.528,1.859-0.538,3.808-0.449,5.723c0.055,0.596,0.189,1.181,0.257,1.774
		c0.014-0.059,0.031-0.118,0.047-0.176c0.739,4.263,4.043,7.823,8.027,9.356c1.555,0.555,3.193,0.913,4.847,0.958
		c0.948,0.124,1.896-0.013,2.844-0.06c1.354-0.133,2.68-0.458,3.996-0.789c1.05-0.257,2.043-0.702,3.102-0.928
		c0.007,1.364,0.037,2.73-0.01,4.093c-0.224,0.231-0.553,0.295-0.848,0.395c-1.041,0.301-2.084,0.601-3.138,0.853
		c-1.448,0.271-2.895,0.604-4.374,0.623c-2.84,0.256-5.728-0.015-8.475-0.771c-4.363-1.247-8.279-4.242-10.326-8.327
		c-1.065-2.093-1.63-4.417-1.762-6.754c-0.032-1.978-0.089-3.983,0.399-5.914c0.859-4.07,3.284-7.841,6.778-10.128
		C45.288,57.267,47.015,56.376,48.875,55.865"/>
	<path clip-path="url(#SVGID_2_)" fill="#ED8815" d="M13.957,55.871c1.773-0.019,3.546-0.012,5.321,0
		c0.453,0.752,0.697,1.604,1.055,2.4c4.292,10.381,8.624,20.743,12.915,31.123c-1.918,0.021-3.837-0.001-5.755,0.013
		c-0.986-2.386-1.905-4.801-2.872-7.193c-0.236-0.769-0.733-1.411-1.016-2.159c-0.476-1.146-0.929-2.306-1.32-3.485
		c-1.883-4.698-3.788-9.389-5.68-14.084c-0.475-1.229-1.064-2.409-1.507-3.651C14.745,57.835,14.228,56.897,13.957,55.871"/>
	<path clip-path="url(#SVGID_2_)" fill="#ED8815" d="M95.996,81.093c-0.449-0.155-0.887-0.365-1.362-0.423
		c-0.288,0.188-0.492,0.474-0.726,0.722c-1.403,1.55-3.118,2.842-5.071,3.611c-4.485,1.751-9.983,1.072-13.635-2.161
		c7.306-7.343,14.66-14.639,21.96-21.988c-0.411-0.576-0.914-1.079-1.438-1.552c-0.973-0.897-2.021-1.723-3.181-2.364
		c-3.78-2.209-8.401-2.744-12.655-1.867c-2.346,0.471-4.538,1.54-6.468,2.938c-2.862,2.146-5.205,5.069-6.361,8.478
		c-0.913,2.552-1.111,5.314-0.844,7.998c0.391,3.852,2.189,7.519,4.938,10.235c1.613,1.677,3.547,3.052,5.687,3.97
		c2.114,0.883,4.399,1.353,6.691,1.356c2.362,0.062,4.737-0.364,6.93-1.248c3.298-1.356,6.147-3.757,8.118-6.721
		C97.746,81.681,96.856,81.424,95.996,81.093 M70.309,74c-0.263-2.405,0.017-4.904,1.012-7.122c1.758-3.87,5.351-6.946,9.548-7.799
		c2.237-0.438,4.586-0.388,6.783,0.234c1.318,0.406,2.619,0.951,3.719,1.797C85.1,67.395,78.823,73.674,72.539,79.949
		C71.268,78.218,70.539,76.125,70.309,74"/>
	<path clip-path="url(#SVGID_2_)" fill="#ED8815" d="M10.105,64.952c0.494-1.309,1.127-2.562,1.59-3.881
		c0.089-0.005,0.269-0.015,0.358-0.02c0.588,1.582,1.243,3.138,1.86,4.709c0.136,0.276,0.124,0.58-0.017,0.852
		c-1.432,3.486-2.769,7.013-4.231,10.485c2.805,0.033,5.612-0.005,8.418,0.019c0.336,0.024,0.419,0.438,0.552,0.688
		c0.372,1.062,0.834,2.089,1.215,3.147c-0.544,0.165-1.102,0.017-1.655,0.028c-3.014,0.006-6.027,0.002-9.041,0.002
		c-0.385-0.002-0.764,0.057-1.144,0.101c-0.399,1.033-0.801,2.063-1.244,3.079c-0.695,1.752-1.373,3.511-2.114,5.242
		C3.102,89.398,1.551,89.416,0,89.397c0.388-1.148,0.905-2.249,1.361-3.37C4.269,79,7.196,71.977,10.105,64.952"/>
	<path clip-path="url(#SVGID_2_)" fill="#B7AFA6" d="M101.3,95.308c1.078,1.182,2.111,2.42,3.386,3.402
		c2.819,1.919,6.201,2.881,9.564,3.238c3.804,0.067,7.712,0.352,11.385-0.869c3.542-1.186,6.99-3.326,8.796-6.708
		c2.066-3.43,2.209-7.544,2.2-11.433c-0.011-9.13,0.058-18.261-0.033-27.389c-1.584-0.02-3.166-0.034-4.746,0.025
		c-0.029,1.775,0.027,3.554-0.068,5.33c-1.714-1.18-3.112-2.78-4.958-3.769c-6.352-3.7-14.751-3.118-20.75,1.024
		c-3.914,2.6-6.804,6.846-7.431,11.537c-0.136,2.789-0.29,5.718,0.897,8.32c1.876,4.738,6.094,8.297,10.875,9.895
		c1.781,0.585,3.625,1.103,5.519,1.08c1.722-0.015,3.475,0.136,5.172-0.258c2.11-0.445,4.182-1.129,6.089-2.143
		c1.708-0.926,3.098-2.302,4.606-3.506c0.113,2.71,0,5.481-0.878,8.07c-0.895,2.468-3.045,4.276-5.386,5.327
		c-3.396,1.696-7.313,1.701-11.014,1.406c-3.672-0.462-7.263-2.157-9.527-5.152L101.3,95.308z M131.918,73.089
		c0.087,2.814-1.234,5.51-3.042,7.602c-2.543,2.612-6.185,4.191-9.843,4.139c-2.161-0.006-4.381,0.126-6.463-0.569
		c-3.872-1.117-7.246-4.043-8.631-7.864c-0.703-1.959-0.652-4.089-0.447-6.129c0.839-5.383,5.428-9.651,10.642-10.831
		c3.49-0.628,7.301-0.568,10.538,1.041c3.149,1.47,5.727,4.217,6.776,7.553C132.07,69.642,131.896,71.395,131.918,73.089"/>
	<path clip-path="url(#SVGID_2_)" fill="#B7AFA6" d="M178.239,68.069c-1.272-5.084-5.105-9.263-9.751-11.545
		c-3.563-1.655-7.598-2.139-11.48-1.703c-7.353,0.641-14.084,6.104-15.995,13.271c-0.86,3.443-0.646,7.156,0.622,10.474
		c1.45,3.489,4.033,6.478,7.198,8.523c3.374,2.172,7.478,2.987,11.45,2.805c3.132,0.082,6.219-0.793,9.016-2.152
		c4.852-2.611,8.558-7.479,9.342-12.983C178.833,72.527,178.773,70.253,178.239,68.069 M173.607,74.837
		c-0.679,3.554-2.843,6.817-5.936,8.72c-1.91,1.109-4.018,2.069-6.266,2.108c-1.677,0.05-3.374,0.114-5.034-0.173
		c-3.659-0.787-7.086-2.99-8.985-6.263c-1.804-2.862-2.279-6.425-1.575-9.705c1.161-4.782,5.138-8.634,9.814-9.987
		c1.331-0.383,2.715-0.459,4.094-0.436c6.444-0.341,12.678,4.662,13.879,10.974C173.762,71.654,173.79,73.258,173.607,74.837"/>
	<path clip-path="url(#SVGID_2_)" fill="#ED8815" d="M33.88,47.055c1.272-0.358,2.583-0.611,3.913-0.616
		c32.296,0.013,64.597,0,96.897,0.009c4.254,0.033,8.525-0.175,12.767,0.324c-0.004,0.1-0.004,0.304-0.004,0.408
		c-4.928,0.59-9.893,0.262-14.842,0.345c-31.469,0.012-62.933-0.005-94.402,0.008C36.754,47.516,35.311,47.279,33.88,47.055"/>
	<path clip-path="url(#SVGID_2_)" fill="#ED8815" d="M82.313,4.091C85.564,2.677,88.747,1.056,92.14,0
		c0.079,11.307,0,22.615,0.05,33.918c-5.311,0.757-10.684-0.054-16.015,0.058c-5.631,0-11.258,0.013-16.884-0.046
		c-0.287-1.879-0.346-3.779-0.125-5.668c0.108-2.911,0.071-5.826,0.029-8.733c-0.183-1.846-0.291-3.713,0.154-5.535
		C67.046,10.792,74.661,7.397,82.313,4.091"/>
	<path clip-path="url(#SVGID_2_)" fill="#B7AFA6" d="M94.727,5.863c6.891,3.597,13.549,7.639,20.401,11.312
		c1.73,0.998,3.769,1.684,4.966,3.38c-3.681,0.3-7.377,0.058-11.065,0.121c-4.799-0.046-9.594,0.096-14.389-0.038
		C94.605,15.711,94.489,10.782,94.727,5.863"/>
	<path clip-path="url(#SVGID_2_)" fill="#ED8815" d="M95.043,21.937c4.241-0.216,8.491-0.038,12.737-0.092
		c3.818,0.063,7.648-0.158,11.461,0.134c0.013,7.103,0,14.209-0.016,21.312c-8.06,0.184-16.132,0.083-24.196,0.059
		C95.021,36.213,95.021,29.073,95.043,21.937"/>
	<path clip-path="url(#SVGID_2_)" fill="#B7AFA6" d="M59.398,35.211c10.929-0.013,21.862-0.038,32.791,0.017
		c0.083,2.711,0.054,5.422,0.004,8.138c-7.282,0.179-14.564,0.037-21.841,0.071c-3.652-0.021-7.303,0.095-10.95-0.067
		C59.315,40.65,59.324,37.931,59.398,35.211"/>
</g>
</svg>
