<?xml version="1.0" encoding="utf-8"?>
<!-- Generator: Adobe Illustrator 22.1.0, SVG Export Plug-In . SVG Version: 6.00 Build 0)  -->
<svg version="1.1" id="Capa_1" xmlns="http://www.w3.org/2000/svg" xmlns:xlink="http://www.w3.org/1999/xlink" x="0px" y="0px"
	 viewBox="0 0 70 73.4" style="enable-background:new 0 0 70 73.4;" xml:space="preserve">
<style type="text/css">
	.st0{fill:#B7AEA6;}
</style>
<g>
	<path class="st0" d="M69.1,46.2c-1-1.3-2.3-1.8-3.9-1.8c-1,0-2,0.2-2.9,0.6c-0.1,0-0.2,0-0.3-0.1c-0.2-0.3-0.4-0.5-0.7-0.7
		c-2-1.5-4.2-1.8-6.6-1c-0.2,0.1-0.2,0-0.3-0.1c-1.2-1-2.5-1.7-4.1-1.8c-2.1-0.2-4,0.4-5.8,1.4c-2.9,1.8-5.8,3.6-8.7,5.4
		c-0.1,0.1-0.2,0.1-0.4,0.1c-1-0.2-2.1-0.5-3.1-0.9c-0.7-0.3-1.4-0.5-1.9-1.2c-0.2-0.2-0.4-0.4-0.5-0.6c-1.5-1.6-3.2-2.8-5.3-3.5
		c-1.8-0.6-3.7-0.8-6.2-0.9c-1.5,0-3.5,0.3-5.5,1c-4.1,1.6-8,3.4-12,5.2c-0.6,0.3-1,1-0.9,1.6c0.2,1.1,1.2,1.6,2.3,1.1
		c3.6-1.7,7.3-3.3,11-4.8c1-0.4,1.9-0.8,3-0.9c2-0.3,4-0.3,6,0.1c1.3,0.2,2.6,0.7,3.6,1.6c0.8,0.6,1.4,1.4,2,2.1
		c0.6,0.6,1.2,1.1,1.9,1.5c2.2,1,4.6,1.6,7,1.9c1.7,0.2,3.4,0.3,5.1,0.3c0.9,0,1.8,0.1,2.7,0.6c0.7,0.4,1.1,1,1,1.8
		c0,0.8-0.4,1.4-1.1,1.7c-0.7,0.3-1.4,0.5-2.2,0.5c-2.8,0-5.5,0-8.3,0c-1.2,0-2.5-0.1-3.7-0.3c-1.9-0.3-3.8-0.7-5.7-1.2
		c-0.7-0.2-1.4,0.2-1.7,0.8c-0.5,0.9,0.1,1.9,1.1,2.2c1.7,0.4,3.3,0.8,5,1.1c1.8,0.3,3.5,0.5,5.3,0.5c2.3,0,4.7,0,7,0
		c0.8,0,1.5,0,2.3-0.1c1-0.2,2-0.5,2.9-1.1c3.9-2.5,7.7-5.1,11.6-7.6c1.1-0.7,2.1-1.5,3.3-2.1c1.1-0.5,2.1-1,3.3-1.2
		c0.8-0.1,1.5,0,2,0.8c0.2,0.3,0.2,0.6,0.1,0.9c-0.2,0.5-0.6,1-0.9,1.4c-0.8,0.8-1.7,1.4-2.7,2c-5.1,3.4-10.2,6.7-15.3,10
		c-2.7,1.8-5.5,3.5-8.3,5.1c-1.8,1-3.6,1.3-5.6,0.7c-1.2-0.4-2.4-0.9-3.5-1.5c-3.9-2-7.8-4-11.7-5.9c-0.8-0.4-1.7-0.7-2.6-0.9
		c-1.2-0.2-2.4,0.1-3.4,0.7c-1.7,0.9-3.2,2-4.8,3c-0.7,0.4-0.8,1.4-0.4,2.1C8,66.6,9,66.8,9.7,66.4c0.5-0.3,1-0.7,1.6-1
		c1-0.6,2-1.4,3.1-1.9c0.7-0.4,1.3-0.5,2-0.3c0.4,0.1,0.8,0.3,1.2,0.5c3.4,1.7,6.9,3.5,10.3,5.2c1.4,0.7,2.8,1.5,4.3,2
		c1.3,0.5,2.7,0.8,4.1,0.8c1.6,0,3.1-0.4,4.5-1.1c1.6-0.8,3.1-1.8,4.7-2.8c4.2-2.6,8.3-5.3,12.4-8c2.9-1.9,5.8-3.8,8.7-5.8
		c1.1-0.8,2.1-1.7,2.9-2.9C70.3,49.6,70.2,47.7,69.1,46.2z M44.8,49.1c-0.1,0-0.1,0.1-0.2,0.1c-1.2-0.4-2.5-0.3-3.7-0.4
		c-0.1,0-0.2,0-0.3-0.1c0.2-0.1,0.4-0.2,0.6-0.4c1.7-1,3.3-2.1,5-3.1c1.3-0.8,2.8-1.2,4.4-0.9c0.4,0.1,0.8,0.2,1.2,0.4
		C49.4,46.3,47.1,47.7,44.8,49.1z M48.6,53.4c-0.1-0.5-0.2-0.9-0.4-1.3c-0.1-0.3-0.3-0.6-0.5-0.9c-0.1-0.1-0.1-0.2,0-0.3
		c2.4-1.5,4.7-3,7.1-4.4c1.2-0.7,2.5-0.9,3.8-0.4c0.2,0.1,0.3,0.2,0.5,0.3C55.7,48.7,52.2,51,48.6,53.4z"/>
	<path class="st0" d="M35,13.9c-4.2,0-7.6,3.4-7.6,7.6c0,4.2,3.4,7.7,7.6,7.7c4.2,0,7.6-3.4,7.6-7.6C42.6,17.3,39.2,13.9,35,13.9z
		 M35,26.1c-2.5,0-4.6-2.1-4.6-4.6c0-2.5,2.1-4.6,4.6-4.6c2.5,0,4.6,2,4.6,4.6C39.6,24.1,37.5,26.1,35,26.1z"/>
	<path class="st0" d="M54.8,19.2c0-0.7-0.5-1.3-1.2-1.4c-1.5-0.3-3-0.5-4.4-0.8c-0.2,0-0.2-0.1-0.3-0.2c-0.2-0.6-0.4-1.1-0.7-1.7
		c-0.1-0.2-0.1-0.3,0-0.4c0.9-1.2,1.7-2.4,2.5-3.6c0.5-0.7,0.4-1.4-0.1-2C49.6,8.1,48.5,7,47.5,6c-0.1-0.1-0.3-0.3-0.5-0.4
		c-0.6-0.2-1.1-0.1-1.6,0.2c-1.2,0.8-2.4,1.7-3.5,2.5c-0.1,0.1-0.2,0.1-0.4,0c-0.5-0.3-1.1-0.5-1.7-0.7c-0.1,0-0.2-0.1-0.2-0.2
		c-0.1-0.5-0.2-1.1-0.3-1.6c-0.2-1-0.3-1.9-0.5-2.9c-0.1-0.7-0.8-1.2-1.5-1.2c-1.5,0-3,0-4.5,0c-0.8,0-1.4,0.5-1.5,1.3
		c-0.3,1.4-0.5,2.9-0.8,4.3c0,0.2-0.1,0.2-0.2,0.3c-0.6,0.2-1.2,0.4-1.7,0.7c-0.1,0.1-0.2,0.1-0.3,0c-1.2-0.9-2.4-1.7-3.5-2.5
		c-0.3-0.2-0.6-0.3-0.9-0.3c-0.4,0-0.8,0.2-1.1,0.5c-1.1,1-2.1,2.1-3.2,3.1c-0.6,0.6-0.7,1.4-0.2,2.1c0.8,1.2,1.6,2.4,2.5,3.6
		c0.1,0.1,0.1,0.2,0,0.3c-0.3,0.6-0.5,1.1-0.7,1.7c0,0.1-0.1,0.2-0.3,0.2c-1.4,0.2-2.8,0.5-4.2,0.7c-0.9,0.1-1.4,0.7-1.4,1.5
		c0,1.5,0,3,0,4.6c0,0.7,0.5,1.3,1.2,1.5c1.5,0.3,2.9,0.5,4.4,0.8c0.1,0,0.2,0.1,0.2,0.2c0.2,0.6,0.4,1.1,0.7,1.7
		c0.1,0.1,0.1,0.2,0,0.4c-0.9,1.2-1.8,2.4-2.6,3.6c-0.4,0.6-0.4,1.4,0.2,1.9c1,1.1,2.1,2.1,3.2,3.2c0.6,0.6,1.4,0.7,2.1,0.2
		c1.2-0.8,2.4-1.7,3.6-2.5c0.1-0.1,0.2-0.1,0.3,0c0.5,0.3,1.1,0.5,1.7,0.7c0.1,0,0.2,0.1,0.2,0.3c0.2,1.4,0.5,2.9,0.7,4.3
		c0.1,0.8,0.7,1.3,1.5,1.4c1.5,0,3.1,0,4.6,0c0.7,0,1.3-0.5,1.5-1.2c0.3-1.5,0.5-3,0.8-4.4c0-0.2,0.1-0.2,0.2-0.3
		c0.6-0.2,1.1-0.4,1.7-0.7c0.1-0.1,0.2-0.1,0.3,0c1.2,0.9,2.4,1.7,3.6,2.6c0.7,0.5,1.4,0.4,2-0.1c1.1-1.1,2.1-2.1,3.2-3.2
		c0.6-0.6,0.7-1.4,0.2-2.1c-0.9-1.2-1.7-2.4-2.6-3.6c-0.1-0.1-0.1-0.2,0-0.3c0.3-0.6,0.5-1.1,0.7-1.7c0-0.1,0.1-0.2,0.3-0.2
		c1.4-0.2,2.9-0.5,4.3-0.7c0.8-0.1,1.3-0.7,1.4-1.5C54.8,22.3,54.8,20.8,54.8,19.2z M51.7,22.3c0,0.1,0,0.2-0.2,0.2
		c-1.3,0.2-2.7,0.4-4,0.7c-0.6,0.1-1,0.5-1.2,1.1c-0.3,1.1-0.8,2.2-1.4,3.2c-0.3,0.6-0.3,1.1,0.1,1.6c0.8,1.1,1.5,2.2,2.3,3.3
		c0.1,0.1,0.1,0.2,0,0.3c-0.4,0.4-0.7,0.7-1.1,1.1c0,0-0.1,0.1-0.1,0.1C46,34,46,34,45.9,33.9c-1.1-0.7-2.1-1.5-3.2-2.2
		c-0.6-0.5-1.2-0.5-1.9-0.1c-0.9,0.6-2,1-3,1.2c-0.7,0.2-1.1,0.6-1.2,1.3c-0.2,1.3-0.4,2.5-0.6,3.8c0,0.2-0.1,0.3-0.3,0.2
		c-0.5,0-1.1,0-1.6,0c-0.1,0-0.2,0-0.2-0.2c-0.2-1.3-0.4-2.7-0.7-4c-0.1-0.6-0.5-1-1.1-1.2c-1.2-0.3-2.3-0.8-3.3-1.4
		c-0.6-0.3-1.1-0.3-1.6,0.1c-1.1,0.7-2.2,1.5-3.2,2.2c-0.1,0.1-0.2,0.1-0.3,0c-0.4-0.4-0.7-0.8-1.1-1.1c-0.1-0.1-0.1-0.2,0-0.3
		c0.7-1,1.5-2,2.2-3.1c0.5-0.6,0.5-1.3,0.1-2c-0.5-0.9-0.9-1.9-1.2-2.9c-0.2-0.8-0.6-1.2-1.4-1.3c-1.3-0.2-2.5-0.5-3.8-0.7
		c-0.1,0-0.2-0.1-0.2-0.2c0-0.6,0-1.1,0-1.7c0-0.1,0.1-0.2,0.2-0.2c1.3-0.2,2.6-0.4,3.9-0.6c0.6-0.1,1-0.5,1.2-1.1
		c0.3-1.2,0.8-2.3,1.4-3.3c0.3-0.5,0.3-1.1-0.1-1.6c-0.7-1.1-1.5-2.2-2.2-3.2c-0.1-0.2-0.1-0.2,0-0.3c0.4-0.4,0.7-0.7,1.1-1.1
		C24,8.9,24,8.9,24.2,9c1,0.8,2.1,1.5,3.1,2.3c0.6,0.4,1.2,0.4,1.8,0.1c1-0.6,2-1,3.1-1.3c0.7-0.2,1.1-0.6,1.2-1.3
		c0.2-1.3,0.5-2.6,0.7-3.9c0-0.1,0.1-0.2,0.2-0.2c0.6,0,1.1,0,1.7,0c0.2,0,0.2,0.1,0.2,0.2C36.3,6,36.5,7,36.7,8
		c0.1,0.3,0.1,0.6,0.2,0.9c0.1,0.6,0.5,1,1.1,1.1c1.1,0.3,2.2,0.8,3.2,1.4c0.6,0.3,1.2,0.3,1.7-0.1c1.1-0.7,2.1-1.5,3.2-2.2
		c0.2-0.1,0.2-0.1,0.4,0c0.3,0.4,0.7,0.7,1.1,1.1c0.1,0.1,0.1,0.2,0,0.3c-0.8,1.1-1.5,2.1-2.3,3.2c-0.4,0.6-0.5,1.2-0.1,1.8
		c0.6,1,1,2,1.3,3.1c0.2,0.7,0.6,1.1,1.4,1.2c1.3,0.2,2.5,0.4,3.8,0.6c0.1,0,0.2,0.1,0.2,0.2C51.7,21.3,51.7,21.8,51.7,22.3z"/>
	<path class="st0" d="M35,13.9c-4.2,0-7.6,3.4-7.6,7.6c0,4.2,3.4,7.7,7.6,7.7c4.2,0,7.6-3.4,7.6-7.6C42.6,17.3,39.2,13.9,35,13.9z
		 M35,26.1c-2.5,0-4.6-2.1-4.6-4.6c0-2.5,2.1-4.6,4.6-4.6c2.5,0,4.6,2,4.6,4.6C39.6,24.1,37.5,26.1,35,26.1z"/>
	<path class="st0" d="M35,13.9c-4.2,0-7.6,3.4-7.6,7.6c0,4.2,3.4,7.7,7.6,7.7c4.2,0,7.6-3.4,7.6-7.6C42.6,17.3,39.2,13.9,35,13.9z
		 M35,26.1c-2.5,0-4.6-2.1-4.6-4.6c0-2.5,2.1-4.6,4.6-4.6c2.5,0,4.6,2,4.6,4.6C39.6,24.1,37.5,26.1,35,26.1z"/>
</g>
</svg>
