<?xml version="1.0" encoding="utf-8"?>
<!-- Generator: Adobe Illustrator 22.1.0, SVG Export Plug-In . SVG Version: 6.00 Build 0)  -->
<svg version="1.1" id="_x2014_ÎÓÈ_x5F_1" xmlns="http://www.w3.org/2000/svg" xmlns:xlink="http://www.w3.org/1999/xlink"
	 x="0px" y="0px" viewBox="0 0 44 50" style="enable-background:new 0 0 44 50;" xml:space="preserve">
<style type="text/css">
	.st0{fill-rule:evenodd;clip-rule:evenodd;fill:#B7AEA6;}
</style>
<path class="st0" d="M16.7,33.4l-6.6,8.3l5.2,4.2c0.9,0.7,2,1,3.1,0.9c1.1-0.1,2.1-0.6,2.8-1.5c4.1-5,7.7-10.3,11-15.9
	c3.2-5.6,6-11.4,8.3-17.4c0.4-1.1,0.3-2.3-0.1-3.2c-0.4-1-1.3-1.8-2.3-2.2l-6.2-2.4l-3.9,9.8l3.5,1.4c0.6,0.2,0.9,0.9,0.7,1.6l0,0.1
	c-1.5,3.2-3.1,6.4-4.9,9.5l0,0c-1.8,3.1-3.8,6.2-5.8,9c-0.4,0.5-1.1,0.7-1.7,0.3L16.7,33.4L16.7,33.4z M18.7,0.8
	C19.3,0.6,20,1,20.2,1.6c0.2,0.6-0.1,1.3-0.8,1.5C16.6,4,14,5.5,11.6,7.4C9.4,9.2,7.5,11.5,6,14.2c-1.5,2.7-2.4,5.6-2.7,8.5
	c-0.3,3-0.1,6,0.7,8.9c0.2,0.6-0.2,1.3-0.8,1.5C2.6,33.4,2,33,1.8,32.3c-0.9-3.2-1.2-6.5-0.8-9.8c0.4-3.2,1.3-6.4,2.9-9.4
	c1.6-3,3.7-5.5,6.2-7.6C12.6,3.4,15.6,1.8,18.7,0.8L18.7,0.8z M19.9,8c0.6-0.2,1.3,0.1,1.6,0.7c0.2,0.6-0.1,1.3-0.7,1.6
	c-1.8,0.7-3.4,1.7-4.9,2.9c-1.4,1.2-2.6,2.7-3.5,4.5c-1,1.8-1.6,3.7-1.8,5.6c-0.3,2-0.1,4,0.3,5.9c0.2,0.7-0.2,1.3-0.9,1.5
	c-0.7,0.2-1.3-0.2-1.5-0.9c-0.5-2.2-0.7-4.5-0.4-6.7c0.3-2.2,1-4.4,2.1-6.4c1.1-2,2.5-3.7,4.1-5.1C16,9.9,17.9,8.8,19.9,8L19.9,8z
	 M7.5,41.2l8.1-10.2c0.4-0.5,1.2-0.6,1.7-0.2l2.9,2.3c1.7-2.5,3.4-5.1,4.9-7.8c1.5-2.7,3-5.4,4.3-8.2l-3.4-1.3
	c-0.6-0.2-0.9-1-0.7-1.6L30,2.1c0.2-0.6,0.9-0.9,1.6-0.7l7.3,2.9c1.7,0.7,3,2,3.7,3.5c0.7,1.6,0.8,3.4,0.2,5.1
	c-2.3,6.1-5.1,12.1-8.4,17.8c-3.3,5.7-7,11.1-11.2,16.2c-1.2,1.4-2.8,2.2-4.5,2.4c-1.7,0.2-3.5-0.3-4.9-1.4l-6.1-4.9
	C7.1,42.4,7.1,41.7,7.5,41.2z"/>
</svg>
