<?xml version="1.0" encoding="utf-8"?>
<!-- Generator: Adobe Illustrator 22.1.0, SVG Export Plug-In . SVG Version: 6.00 Build 0)  -->
<svg version="1.1" id="_x2014_ÎÓÈ_x5F_1" xmlns="http://www.w3.org/2000/svg" xmlns:xlink="http://www.w3.org/1999/xlink"
	 x="0px" y="0px" viewBox="0 0 44 50" style="enable-background:new 0 0 44 50;" xml:space="preserve">
<style type="text/css">
	.st0{fill-rule:evenodd;clip-rule:evenodd;fill:#B7AEA6;}
</style>
<path class="st0" d="M21.9,49.6c-1.5-1.8-3.2-3.6-4.9-5.5C13.3,40,9.4,35.7,6.7,31.9l0,0c-1.2-1.7-2.1-3.5-2.7-5.4
	c-0.6-1.9-0.9-3.9-0.9-5.9c0-5.4,2.2-10.3,5.7-13.9C12.4,3.2,17.3,1,22.8,1s10.3,2.2,13.9,5.7c3.5,3.5,5.7,8.4,5.7,13.9h0
	c0,2-0.3,4-0.9,5.9c-0.6,1.9-1.5,3.7-2.7,5.4c-2.7,3.8-6.6,8.1-10.3,12.2c-1.7,1.9-3.4,3.7-4.9,5.5c-0.4,0.5-1.2,0.5-1.6,0.1
	C22,49.7,21.9,49.6,21.9,49.6L21.9,49.6z M22.8,12.9c-2.1,0-4.1,0.9-5.5,2.3c-1.4,1.4-2.3,3.3-2.3,5.5h0c0,2.1,0.9,4.1,2.3,5.5
	c1.4,1.4,3.3,2.3,5.5,2.3s4.1-0.9,5.5-2.3c1.4-1.4,2.3-3.3,2.3-5.5c0-2.1-0.9-4.1-2.3-5.5C26.8,13.7,24.9,12.9,22.8,12.9L22.8,12.9z
	 M15.6,13.5c-1.8,1.8-3,4.3-3,7.1h0c0,2.8,1.1,5.3,2.9,7.1c1.8,1.8,4.3,3,7.1,3s5.3-1.1,7.1-3c1.8-1.8,3-4.3,3-7.1
	c0-2.8-1.1-5.3-3-7.1c-1.8-1.8-4.3-3-7.1-3C20,10.5,17.5,11.7,15.6,13.5L15.6,13.5z M18.7,42.5c1.4,1.6,2.8,3.1,4.1,4.5
	c1.2-1.4,2.6-3,4.1-4.5c3.6-4,7.4-8.3,10.1-12c1-1.5,1.8-3,2.3-4.7c0.5-1.7,0.8-3.4,0.8-5.2h0c0-4.8-1.9-9.1-5.1-12.2
	c-3.1-3.1-7.4-5.1-12.2-5.1s-9.1,1.9-12.2,5.1c-3.1,3.1-5.1,7.4-5.1,12.2c0,1.8,0.3,3.5,0.8,5.2c0.5,1.7,1.3,3.3,2.4,4.8
	C11.3,34.3,15.1,38.5,18.7,42.5z"/>
</svg>
