<?xml version="1.0" encoding="utf-8"?>
<!-- Generator: Adobe Illustrator 22.1.0, SVG Export Plug-In . SVG Version: 6.00 Build 0)  -->
<svg version="1.1" id="Capa_1" xmlns="http://www.w3.org/2000/svg" xmlns:xlink="http://www.w3.org/1999/xlink" x="0px" y="0px"
	 viewBox="0 0 86.3 73.4" style="enable-background:new 0 0 86.3 73.4;" xml:space="preserve">
<style type="text/css">
	.st0{fill:none;stroke:#B7AEA6;stroke-width:3;stroke-linecap:round;stroke-miterlimit:10;}
</style>
<g>
	<path class="st0" d="M49.5,32.5c-2.9-3.9-6.4,0.2-6.4,0.2s-3.5-4.2-6.4-0.2c-3.1,4.2,4.3,8.9,6.4,10.1
		C45.2,41.4,52.6,36.7,49.5,32.5z"/>
</g>
<path class="st0" d="M58.8,36.7c0,19.2-7,34.8-15.6,34.8c-8.6,0-15.6-15.6-15.6-34.8c0-19.2,7-34.8,15.6-34.8
	C51.8,1.9,58.8,17.5,58.8,36.7z"/>
<path class="st0" d="M51.3,23.4c16.4,10,26.1,24.1,21.6,31.5C68.4,62.2,51.5,60,35,50C18.6,40,8.9,26,13.4,18.6
	C17.9,11.2,34.8,13.4,51.3,23.4z"/>
<path class="st0" d="M35,23.4c-16.4,10-26.1,24.1-21.6,31.5c4.5,7.4,21.4,5.2,37.9-4.8C67.7,40,77.4,26,72.9,18.6
	C68.4,11.2,51.5,13.4,35,23.4z"/>
</svg>
